<svg xmlns="http://www.w3.org/2000/svg" viewBox="0 0 32 32">
  <defs>
    <linearGradient id="g" x1="0" y1="0" x2="1" y2="1">
      <stop offset="0%" stop-color="#9b5eff"/>
      <stop offset="100%" stop-color="#6e28e0"/>
    </linearGradient>
  </defs>
  <rect width="32" height="32" rx="7" fill="#070810"/>
  <path fill="url(#g)" d="M4 18.09L4 18.09L10.68 18.09Q10.85 18.61 11.68 18.96Q12.51 19.31 13.92 19.50Q15.33 19.68 17.19 19.68L17.19 19.68Q19.02 19.68 20.09 19.57Q21.15 19.46 21.59 19.18Q22.03 18.90 22.03 18.41L22.03 18.41Q22.03 17.94 21.32 17.69Q20.61 17.43 18.80 17.33Q16.99 17.24 13.71 17.24L13.71 17.24Q11.27 17.24 9.49 17.00Q7.72 16.77 6.58 16.27Q5.44 15.77 4.91 15.00Q4.37 14.23 4.37 13.15L4.37 13.15Q4.37 11.29 5.63 10.08Q6.89 8.87 9.44 8.27Q12 7.67 15.84 7.67L15.84 7.67Q21.47 7.67 24.44 9.30Q27.41 10.92 27.41 13.98L27.41 13.98L21.08 13.98Q20.95 13.17 19.56 12.75Q18.17 12.32 15.60 12.32L15.60 12.32Q13.05 12.32 11.82 12.61Q10.58 12.91 10.58 13.61L10.58 13.61Q10.58 13.98 10.92 14.20Q11.27 14.42 12.11 14.56Q12.95 14.69 14.50 14.74Q16.04 14.79 18.41 14.79L18.41 14.79Q21.03 14.79 22.86 15.05Q24.70 15.30 25.83 15.82Q26.97 16.33 27.49 17.13Q28 17.92 28 19.00L28 19.00Q28 20.86 26.83 22.03Q25.65 23.20 23.11 23.77Q20.56 24.33 16.45 24.33L16.45 24.33Q14.13 24.33 12.18 24.06Q10.24 23.79 8.72 23.27Q7.20 22.74 6.15 21.97Q5.10 21.20 4.55 20.23Q4 19.27 4 18.09Z"/>
</svg>
